<mxfile host="app.diagrams.net" agent="Mozilla/5.0 (Windows NT 10.0; Win64; x64) AppleWebKit/537.36 (KHTML, like Gecko) Chrome/135.0.0.0 Safari/537.36" version="27.0.1">
  <diagram name="Page-1" id="RZGmJIJhxQW0RKij7cul">
    <mxGraphModel>
      <root>
        <mxCell id="0" />
        <mxCell id="1" parent="0" />
        <mxCell id="2" value="User" style="whiteSpace=wrap;strokeWidth=2;" vertex="1" parent="1">
          <mxGeometry x="588" y="8" width="92" height="54" as="geometry" />
        </mxCell>
        <mxCell id="3" value="Authentication Service" style="whiteSpace=wrap;strokeWidth=2;" vertex="1" parent="1">
          <mxGeometry x="8" y="134" width="223" height="54" as="geometry" />
        </mxCell>
        <mxCell id="4" value="User Database" style="whiteSpace=wrap;strokeWidth=2;" vertex="1" parent="1">
          <mxGeometry x="294" y="261" width="162" height="54" as="geometry" />
        </mxCell>
        <mxCell id="5" value="Forum" style="whiteSpace=wrap;strokeWidth=2;" vertex="1" parent="1">
          <mxGeometry x="796" y="261" width="105" height="54" as="geometry" />
        </mxCell>
        <mxCell id="6" value="Discussion Topics Database" style="whiteSpace=wrap;strokeWidth=2;" vertex="1" parent="1">
          <mxGeometry x="356" y="387" width="251" height="54" as="geometry" />
        </mxCell>
        <mxCell id="7" value="Notification Service" style="whiteSpace=wrap;strokeWidth=2;" vertex="1" parent="1">
          <mxGeometry x="954" y="514" width="201" height="54" as="geometry" />
        </mxCell>
        <mxCell id="8" value="Search Engine" style="whiteSpace=wrap;strokeWidth=2;" vertex="1" parent="1">
          <mxGeometry x="1000" y="134" width="160" height="54" as="geometry" />
        </mxCell>
        <mxCell id="9" value="Thread Database" style="whiteSpace=wrap;strokeWidth=2;" vertex="1" parent="1">
          <mxGeometry x="820" y="387" width="181" height="54" as="geometry" />
        </mxCell>
        <mxCell id="10" value="Profile Management Service" style="whiteSpace=wrap;strokeWidth=2;" vertex="1" parent="1">
          <mxGeometry x="281" y="134" width="259" height="54" as="geometry" />
        </mxCell>
        <mxCell id="11" value="Login" style="curved=1;startArrow=none;endArrow=block;exitX=0;exitY=0.6;entryX=0.5;entryY=0.01;" edge="1" parent="1" source="2" target="3">
          <mxGeometry relative="1" as="geometry">
            <Array as="points">
              <mxPoint x="119" y="98" />
            </Array>
          </mxGeometry>
        </mxCell>
        <mxCell id="12" value="Validates Credentials" style="curved=1;startArrow=none;endArrow=block;exitX=0.5;exitY=1.01;entryX=0;entryY=0.13;" edge="1" parent="1" source="3" target="4">
          <mxGeometry relative="1" as="geometry">
            <Array as="points">
              <mxPoint x="119" y="225" />
            </Array>
          </mxGeometry>
        </mxCell>
        <mxCell id="13" value="Returns User Info" style="curved=1;startArrow=none;endArrow=block;exitX=1;exitY=0.14;entryX=0.52;entryY=1;" edge="1" parent="1" source="4" target="2">
          <mxGeometry relative="1" as="geometry">
            <Array as="points">
              <mxPoint x="638" y="225" />
              <mxPoint x="638" y="98" />
            </Array>
          </mxGeometry>
        </mxCell>
        <mxCell id="14" value="Starts Discussion" style="curved=1;startArrow=none;endArrow=block;exitX=1;exitY=0.86;entryX=0.24;entryY=0;" edge="1" parent="1" source="2" target="5">
          <mxGeometry relative="1" as="geometry">
            <Array as="points">
              <mxPoint x="783" y="98" />
              <mxPoint x="783" y="225" />
            </Array>
          </mxGeometry>
        </mxCell>
        <mxCell id="15" value="Posts Topic" style="curved=1;startArrow=none;endArrow=block;exitX=0;exitY=0.66;entryX=0.5;entryY=0;" edge="1" parent="1" source="5" target="6">
          <mxGeometry relative="1" as="geometry">
            <Array as="points">
              <mxPoint x="482" y="351" />
            </Array>
          </mxGeometry>
        </mxCell>
        <mxCell id="16" value="Stores New Topic" style="curved=1;startArrow=none;endArrow=block;exitX=0.5;exitY=1;entryX=0;entryY=0.29;" edge="1" parent="1" source="6" target="7">
          <mxGeometry relative="1" as="geometry">
            <Array as="points">
              <mxPoint x="482" y="477" />
            </Array>
          </mxGeometry>
        </mxCell>
        <mxCell id="17" value="Notify Users" style="curved=1;startArrow=none;endArrow=block;exitX=0.8;exitY=-0.01;entryX=1;entryY=0.6;" edge="1" parent="1" source="7" target="2">
          <mxGeometry relative="1" as="geometry">
            <Array as="points">
              <mxPoint x="1195" y="477" />
              <mxPoint x="1195" y="98" />
            </Array>
          </mxGeometry>
        </mxCell>
        <mxCell id="18" value="Search Topics" style="curved=1;startArrow=none;endArrow=block;exitX=1;exitY=0.69;entryX=0.77;entryY=0;" edge="1" parent="1" source="2" target="5">
          <mxGeometry relative="1" as="geometry">
            <Array as="points">
              <mxPoint x="915" y="98" />
              <mxPoint x="915" y="225" />
            </Array>
          </mxGeometry>
        </mxCell>
        <mxCell id="19" value="Search Results" style="curved=1;startArrow=none;endArrow=block;exitX=1;exitY=0.62;entryX=0.5;entryY=0.01;" edge="1" parent="1" source="2" target="8">
          <mxGeometry relative="1" as="geometry">
            <Array as="points">
              <mxPoint x="1080" y="98" />
            </Array>
          </mxGeometry>
        </mxCell>
        <mxCell id="20" value="Returns Matching Topics" style="curved=1;startArrow=none;endArrow=block;exitX=0.5;exitY=1.01;entryX=1.01;entryY=0.23;" edge="1" parent="1" source="8" target="5">
          <mxGeometry relative="1" as="geometry">
            <Array as="points">
              <mxPoint x="1080" y="225" />
            </Array>
          </mxGeometry>
        </mxCell>
        <mxCell id="21" value="View Replies" style="curved=1;startArrow=none;endArrow=block;exitX=0;exitY=0.84;entryX=0;entryY=0.07;" edge="1" parent="1" source="5" target="9">
          <mxGeometry relative="1" as="geometry">
            <Array as="points">
              <mxPoint x="668" y="351" />
            </Array>
          </mxGeometry>
        </mxCell>
        <mxCell id="22" value="Fetches Replies" style="curved=1;startArrow=none;endArrow=block;exitX=0.51;exitY=0;entryX=0.78;entryY=1;" edge="1" parent="1" source="9" target="5">
          <mxGeometry relative="1" as="geometry">
            <Array as="points">
              <mxPoint x="916" y="351" />
            </Array>
          </mxGeometry>
        </mxCell>
        <mxCell id="23" value="Update Profile" style="curved=1;startArrow=none;endArrow=block;exitX=0;exitY=0.74;entryX=0.5;entryY=0.01;" edge="1" parent="1" source="2" target="10">
          <mxGeometry relative="1" as="geometry">
            <Array as="points">
              <mxPoint x="410" y="98" />
            </Array>
          </mxGeometry>
        </mxCell>
        <mxCell id="24" value="Updates User Info" style="curved=1;startArrow=none;endArrow=block;exitX=0.5;exitY=1.01;entryX=0.59;entryY=0;" edge="1" parent="1" source="10" target="4">
          <mxGeometry relative="1" as="geometry">
            <Array as="points">
              <mxPoint x="410" y="225" />
            </Array>
          </mxGeometry>
        </mxCell>
        <mxCell id="25" value="View Thread" style="curved=1;startArrow=none;endArrow=block;exitX=0.23;exitY=1;entryX=0.2;entryY=0;" edge="1" parent="1" source="5" target="9">
          <mxGeometry relative="1" as="geometry">
            <Array as="points">
              <mxPoint x="782" y="351" />
            </Array>
          </mxGeometry>
        </mxCell>
        <mxCell id="26" value="Displays Thread Replies" style="curved=1;startArrow=none;endArrow=block;exitX=0.9;exitY=0;entryX=1.01;entryY=0.76;" edge="1" parent="1" source="9" target="5">
          <mxGeometry relative="1" as="geometry">
            <Array as="points">
              <mxPoint x="1079" y="351" />
            </Array>
          </mxGeometry>
        </mxCell>
      </root>
    </mxGraphModel>
  </diagram>
</mxfile>
